:SAMPLES-PER-SECOND 30
:FULLY-SPECIFIED
:DEGREES
63
root  -9.17089 17.5582 5.9945 170.318 61.1239 142.887
RightUpLeg  -75.0636 -19.55 28.2632
RightLeg  129.844 28.6839 -17.3973
RightFoot  -39.4903 1.49476 6.32171
RightToes  1.74622e-010 -3.18055e-015 8.94531e-016
Spine  53.226 -6.39502 -3.99646
Spine1  -3.67947 -10.1535 10.7566
HEad  -63.1601 -2.51539 11.8562
LeftShoulder1  0 -2.69403e-036 -1.28585e-037
LeftArm  6.08072 -52.463 -78.2005
LeftForeArm  10.4566 -16.7268 6.37163
LeftHand  -1.59219 0.797584 27.2811
RightShoulder  -2.48481e-017 0 -8.08114e-019
RightArm  -9.80043 26.3222 90.8238
RightForeArm  19.0466 4.24587 -2.35933
RightHand  8.42328 -21.2102 -43.3989
LeftUpLeg  -13.7077 -17.7457 21.5542
LeftLeg  85.4967 -14.9962 -25.6502
LeftFoot  -18.0597 -0.824331 -18.7629
LeftToes  4.94765e-010 2.02697e-011 4.00889e-011
64
root  -8.11385 17.7809 5.90699 172.813 63.2434 142.118
RightUpLeg  -73.9513 -18.824 27.9689
RightLeg  128.963 26.3489 -15.6546
RightFoot  -39.2137 1.17404 5.01024
RightToes  1.74622e-010 -3.18055e-015 8.94531e-016
Spine  52.4214 -5.23409 -5.05301
Spine1  -5.16695 -9.526 12.5232
HEad  -62.6559 -0.422296 10.8315
LeftShoulder1  0 -2.69403e-036 -1.28585e-037
LeftArm  -0.33481 -57.4939 -78.1938
LeftForeArm  16.419 -10.9391 4.18604
LeftHand  -1.2521 1.03249 23.3889
RightShoulder  -2.48481e-017 0 -8.08114e-019
RightArm  -10.4261 23.7938 92.4536
RightForeArm  20.9144 4.57037 -2.32602
RightHand  8.81465 -21.5447 -44.6276
LeftUpLeg  -13.5115 -16.8435 20.7363
LeftLeg  81.5264 -16.4383 -24.5213
LeftFoot  -15.1135 -0.358147 -20.6984
LeftToes  4.94765e-010 2.02697e-011 4.00889e-011
65
root  -7.04929 18.0211 5.71307 176.455 65.8932 142.738
RightUpLeg  -72.4223 -17.1282 27.4109
RightLeg  127.906 23.8835 -13.6715
RightFoot  -38.5553 0.87653 3.82855
RightToes  1.74622e-010 -3.18055e-015 8.94531e-016
Spine  52.4106 -4.35402 -5.0735
Spine1  -8.05559 -8.31963 13.2598
HEad  -61.8548 1.09202 10.1206
LeftShoulder1  0 -2.69403e-036 -1.28585e-037
LeftArm  2.48164 -61.2845 -81.8186
LeftForeArm  14.9927 -3.97112 3.01882
LeftHand  -0.83364 1.41816 18.5509
RightShoulder  -2.48481e-017 0 -8.08114e-019
RightArm  -11.6081 20.327 93.3848
RightForeArm  23.0435 5.04179 -2.26507
RightHand  8.97046 -21.6296 -45.2531
LeftUpLeg  -13.7463 -14.9832 20.523
LeftLeg  78.2991 -17.232 -22.6168
LeftFoot  -10.1775 0.605547 -22.3137
LeftToes  4.94765e-010 2.02697e-011 4.00889e-011
66
root  -5.99915 18.3601 5.37967 -178.443 68.3988 145.338
RightUpLeg  -70.2874 -14.9923 25.5179
RightLeg  127.206 19.8813 -9.55452
RightFoot  -37.4482 0.528904 2.3981
RightToes  1.74622e-010 -3.18055e-015 8.94531e-016
Spine  53.35 -3.28285 -4.39385
Spine1  -11.732 -6.59357 14.9947
HEad  -61.6323 1.54282 8.50428
LeftShoulder1  0 -2.69403e-036 -1.28585e-037
LeftArm  6.40153 -63.2872 -88.7345
LeftForeArm  14.4389 0.544023 2.59751
LeftHand  -0.689062 1.73984 17.703
RightShoulder  -2.48481e-017 0 -8.08114e-019
RightArm  -12.2558 16.8626 93.0354
RightForeArm  25.3355 5.49345 -1.69136
RightHand  9.09846 -21.6591 -45.8898
LeftUpLeg  -14.8034 -13.2508 20.4752
LeftLeg  75.9878 -17.1471 -19.491
LeftFoot  -2.50687 2.08689 -21.6964
LeftToes  4.94765e-010 2.02697e-011 4.00889e-011
67
root  -4.95002 18.7354 5.00311 -173.738 70.5882 147.242
RightUpLeg  -68.5693 -12.372 22.1709
RightLeg  126.463 14.7147 -3.55861
RightFoot  -36.4939 0.167595 0.753546
RightToes  1.74622e-010 -3.18055e-015 8.94531e-016
Spine  53.8582 -2.10864 -3.99703
Spine1  -14.8166 -4.9356 17.0262
HEad  -62.438 1.19702 6.42644
LeftShoulder1  0 -2.69403e-036 -1.28585e-037
LeftArm  8.56611 -63.1058 -94.3085
LeftForeArm  14.4677 0.669214 3.02015
LeftHand  -0.997802 1.72359 23.1999
RightShoulder  -2.48481e-017 0 -8.08114e-019
RightArm  -12.0904 13.8111 91.8299
RightForeArm  27.4152 6.73894 -0.841772
RightHand  9.07589 -21.5789 -46.0225
LeftUpLeg  -17.439 -11.4431 19.6735
LeftLeg  75.4024 -16.4099 -16.3877
LeftFoot  4.60268 3.00874 -18.735
LeftToes  4.94765e-010 2.02697e-011 4.00889e-011
68
root  -3.83109 19.1553 4.60312 -170.336 72.0676 148.453
RightUpLeg  -66.0262 -10.7405 18.757
RightLeg  124.351 10.5905 1.70705
RightFoot  -36.4548 -0.183172 -0.944334
RightToes  1.74622e-010 -3.18055e-015 8.94531e-016
Spine  54.2183 -1.379 -3.13371
Spine1  -16.7347 -3.58362 17.6074
HEad  -63.7327 -0.184262 5.08864
LeftShoulder1  0 -2.69403e-036 -1.28585e-037
LeftArm  8.07798 -61.3022 -96.382
LeftForeArm  14.3404 0.453822 2.28715
LeftHand  -1.70724 1.13758 31.1299
RightShoulder  -2.48481e-017 0 -8.08114e-019
RightArm  -7.94624 10.4361 89.8099
RightForeArm  25.6037 10.1106 -1.40776
RightHand  8.49809 -21.0346 -44.4266
LeftUpLeg  -20.8747 -9.99573 18.4114
LeftLeg  77.2407 -15.3221 -13.9193
LeftFoot  7.37771 2.63472 -14.1761
LeftToes  4.94765e-010 2.02697e-011 4.00889e-011
69
root  -2.65683 19.5662 4.24339 -168.634 73.2787 148.623
RightUpLeg  -62.8517 -9.94274 16.6827
RightLeg  120.886 9.56688 3.39493
RightFoot  -36.8087 -0.47 -2.29829
RightToes  1.74622e-010 -3.18055e-015 8.94531e-016
Spine  54.2415 -0.796832 -2.13668
Spine1  -17.5171 -2.38859 15.9492
HEad  -64.5822 -2.37402 5.75224
LeftShoulder1  0 -2.69403e-036 -1.28585e-037
LeftArm  8.1376 -59.1567 -98.0545
LeftForeArm  14.7107 0.0713103 1.025
LeftHand  -2.35996 0.441835 35.9171
RightShoulder  -2.48481e-017 0 -8.08114e-019
RightArm  1.33541 6.00944 87.612
RightForeArm  17.1197 14.7961 -5.71623
RightHand  7.57153 -20.1008 -41.7411
LeftUpLeg  -24.8914 -8.65945 16.9326
LeftLeg  81.5589 -14.067 -11.6793
LeftFoot  6.54979 1.82098 -10.2143
LeftToes  4.94765e-010 2.02697e-011 4.00889e-011
70
root  -1.52863 19.9175 3.92 -168.323 74.4147 147.777
RightUpLeg  -59.9357 -9.6009 15.4757
RightLeg  117.178 10.2336 2.5137
RightFoot  -36.7347 -0.582851 -2.84537
RightToes  1.74622e-010 -3.18055e-015 8.94531e-016
Spine  53.8482 -0.179724 -1.60391
Spine1  -17.5119 -1.46406 13.5972
HEad  -64.9668 -4.42142 7.70126
LeftShoulder1  0 -2.69403e-036 -1.28585e-037
LeftArm  9.35363 -57.5895 -101.264
LeftForeArm  15.8159 -0.109934 0.494619
LeftHand  -2.67043 0.0407591 37.3912
RightShoulder  -2.48481e-017 0 -8.08114e-019
RightArm  11.1533 1.38671 85.8767
RightForeArm  5.87525 18.0097 -13.144
RightHand  6.95368 -19.3896 -39.9956
LeftUpLeg  -29.7219 -7.76488 15.355
LeftLeg  87.7563 -12.9681 -9.79417
LeftFoot  5.68603 1.6672 -9.79123
LeftToes  4.94765e-010 2.02697e-011 4.00889e-011
71
root  -0.503246 20.1705 3.57556 -168.196 75.5315 147.225
RightUpLeg  -57.2206 -9.29491 14.019
RightLeg  114.317 10.1897 2.77604
RightFoot  -36.2701 -0.53707 -2.67986
RightToes  1.74622e-010 -3.18055e-015 8.94531e-016
Spine  53.4736 0.339072 -1.51583
Spine1  -17.1542 -0.945118 12.4567
HEad  -65.3655 -5.50916 9.01978
LeftShoulder1  0 -2.69403e-036 -1.28585e-037
LeftArm  8.96275 -56.2933 -103.564
LeftForeArm  17.738 -0.128706 0.581216
LeftHand  -2.89914 -0.167155 38.8988
RightShoulder  -2.48481e-017 0 -8.08114e-019
RightArm  17.8952 -1.22119 84.6044
RightForeArm  -2.68493 19.5453 -20.7728
RightHand  6.80175 -19.1852 -39.6359
LeftUpLeg  -35.0667 -7.65177 13.921
LeftLeg  95.1372 -12.0086 -9.5908
LeftFoot  6.20466 1.83331 -10.4735
LeftToes  4.94765e-010 2.02697e-011 4.00889e-011
72
root  0.45996 20.2943 3.17142 -166.563 77.0734 148.757
RightUpLeg  -54.1117 -8.32274 12.1109
RightLeg  112.345 9.07251 5.49094
RightFoot  -35.916 -0.471961 -2.39912
RightToes  1.74622e-010 -3.18055e-015 8.94531e-016
Spine  53.3408 0.712824 -1.19835
Spine1  -16.8237 -0.474532 11.8397
HEad  -65.7401 -5.93336 9.36954
LeftShoulder1  0 -2.69403e-036 -1.28585e-037
LeftArm  6.53805 -54.5967 -103.369
LeftForeArm  20.0325 -0.305447 0.174263
LeftHand  -3.20711 -0.341545 41.4176
RightShoulder  -2.48481e-017 0 -8.08114e-019
RightArm  14.8345 -0.531101 82.7259
RightForeArm  -0.650688 22.7736 -24.4142
RightHand  6.70221 -19.0651 -39.3431
LeftUpLeg  -40.2692 -7.85669 12.8396
LeftLeg  102.983 -10.5638 -11.3003
LeftFoot  6.43776 1.45141 -8.17546
LeftToes  4.94765e-010 2.02697e-011 4.00889e-011
73
root  1.41982 20.2932 2.72526 -161.689 79.666 153.761
RightUpLeg  -50.7093 -6.10528 10.4037
RightLeg  110.403 8.06687 8.50515
RightFoot  -35.7673 -0.475609 -2.43326
RightToes  1.74622e-010 -3.18055e-015 8.94531e-016
Spine  53.0093 1.20334 -0.198578
Spine1  -16.4144 0.565656 9.29361
HEad  -65.8509 -6.46591 10.2436
LeftShoulder1  0 -2.69403e-036 -1.28585e-037
LeftArm  5.55288 -52.6457 -103.564
LeftForeArm  22.0705 -0.628046 -0.739591
LeftHand  -3.4921 -0.517269 43.5139
RightShoulder  -2.48481e-017 0 -8.08114e-019
RightArm  10.6379 2.6493 79.893
RightForeArm  1.41433 26.2563 -26.8646
RightHand  6.40425 -18.7279 -38.3461
LeftUpLeg  -45.2674 -7.46686 12.1381
LeftLeg  110.467 -8.54954 -13.1585
LeftFoot  5.46895 0.782695 -4.60959
LeftToes  4.94765e-010 2.02697e-011 4.00889e-011
74
root  2.37862 20.1996 2.27241 -149.583 83.285 165.89
RightUpLeg  -47.5189 -2.91289 9.18846
RightLeg  108.196 7.87793 9.9968
RightFoot  -35.6945 -0.535383 -2.74066
RightToes  1.74622e-010 -3.18055e-015 8.94531e-016
Spine  52.6721 1.87775 1.09707
Spine1  -16.5263 2.07283 4.5371
HEad  -65.3216 -6.75217 12.0394
LeftShoulder1  0 -2.69403e-036 -1.28585e-037
LeftArm  5.92189 -50.9982 -104.86
LeftForeArm  24.1358 -0.950034 -1.64252
LeftHand  -3.68145 -0.638502 44.8071
RightShoulder  -2.48481e-017 0 -8.08114e-019
RightArm  7.26306 7.11593 76.5578
RightForeArm  1.33155 28.3281 -28.3406
RightHand  6.07523 -18.363 -37.1388
LeftUpLeg  -50.4873 -6.15399 11.787
LeftLeg  116.897 -6.5304 -14.1564
LeftFoot  4.26107 0.777298 -4.91878
LeftToes  4.94765e-010 2.02697e-011 4.00889e-011
